<?xml version="1.0" encoding="utf-8" standalone="no"?>
<!DOCTYPE svg PUBLIC "-//W3C//DTD SVG 1.1//EN"
  "http://www.w3.org/Graphics/SVG/1.1/DTD/svg11.dtd">
<svg xmlns:xlink="http://www.w3.org/1999/xlink" width="460.8pt" height="345.6pt" viewBox="0 0 460.8 345.6" xmlns="http://www.w3.org/2000/svg" version="1.1">
 <metadata>
  <rdf:RDF xmlns:dc="http://purl.org/dc/elements/1.1/" xmlns:cc="http://creativecommons.org/ns#" xmlns:rdf="http://www.w3.org/1999/02/22-rdf-syntax-ns#">
   <cc:Work>
    <dc:type rdf:resource="http://purl.org/dc/dcmitype/StillImage"/>
    <dc:date>2024-05-27T10:53:49.779807</dc:date>
    <dc:format>image/svg+xml</dc:format>
    <dc:creator>
     <cc:Agent>
      <dc:title>Matplotlib v3.8.0, https://matplotlib.org/</dc:title>
     </cc:Agent>
    </dc:creator>
   </cc:Work>
  </rdf:RDF>
 </metadata>
 <defs>
  <style type="text/css">*{stroke-linejoin: round; stroke-linecap: butt}</style>
 </defs>
 <g id="figure_1">
  <g id="patch_1">
   <path d="M 0 345.6 
L 460.8 345.6 
L 460.8 0 
L 0 0 
z
" style="fill: #ffffff"/>
  </g>
  <g id="axes_1">
   <g id="patch_2">
    <path d="M 57.6 307.584 
L 414.72 307.584 
L 414.72 41.472 
L 57.6 41.472 
z
" style="fill: #ffffff"/>
   </g>
   <g id="matplotlib.axis_1">
    <g id="xtick_1">
     <g id="line2d_1">
      <defs>
       <path id="m88f9a31896" d="M 0 0 
L 0 3.5 
" style="stroke: #000000; stroke-width: 0.8"/>
      </defs>
      <g>
       <use xlink:href="#m88f9a31896" x="73.832727" y="307.584" style="stroke: #000000; stroke-width: 0.8"/>
      </g>
     </g>
     <g id="text_1">
      <!-- 0 -->
      <g transform="translate(70.651477 322.182437) scale(0.1 -0.1)">
       <defs>
        <path id="DejaVuSans-30" d="M 2034 4250 
Q 1547 4250 1301 3770 
Q 1056 3291 1056 2328 
Q 1056 1369 1301 889 
Q 1547 409 2034 409 
Q 2525 409 2770 889 
Q 3016 1369 3016 2328 
Q 3016 3291 2770 3770 
Q 2525 4250 2034 4250 
z
M 2034 4750 
Q 2819 4750 3233 4129 
Q 3647 3509 3647 2328 
Q 3647 1150 3233 529 
Q 2819 -91 2034 -91 
Q 1250 -91 836 529 
Q 422 1150 422 2328 
Q 422 3509 836 4129 
Q 1250 4750 2034 4750 
z
" transform="scale(0.015625)"/>
       </defs>
       <use xlink:href="#DejaVuSans-30"/>
      </g>
     </g>
    </g>
    <g id="xtick_2">
     <g id="line2d_2">
      <g>
       <use xlink:href="#m88f9a31896" x="131.836774" y="307.584" style="stroke: #000000; stroke-width: 0.8"/>
      </g>
     </g>
     <g id="text_2">
      <!-- 2 -->
      <g transform="translate(128.655524 322.182437) scale(0.1 -0.1)">
       <defs>
        <path id="DejaVuSans-32" d="M 1228 531 
L 3431 531 
L 3431 0 
L 469 0 
L 469 531 
Q 828 903 1448 1529 
Q 2069 2156 2228 2338 
Q 2531 2678 2651 2914 
Q 2772 3150 2772 3378 
Q 2772 3750 2511 3984 
Q 2250 4219 1831 4219 
Q 1534 4219 1204 4116 
Q 875 4013 500 3803 
L 500 4441 
Q 881 4594 1212 4672 
Q 1544 4750 1819 4750 
Q 2544 4750 2975 4387 
Q 3406 4025 3406 3419 
Q 3406 3131 3298 2873 
Q 3191 2616 2906 2266 
Q 2828 2175 2409 1742 
Q 1991 1309 1228 531 
z
" transform="scale(0.015625)"/>
       </defs>
       <use xlink:href="#DejaVuSans-32"/>
      </g>
     </g>
    </g>
    <g id="xtick_3">
     <g id="line2d_3">
      <g>
       <use xlink:href="#m88f9a31896" x="189.84082" y="307.584" style="stroke: #000000; stroke-width: 0.8"/>
      </g>
     </g>
     <g id="text_3">
      <!-- 4 -->
      <g transform="translate(186.65957 322.182437) scale(0.1 -0.1)">
       <defs>
        <path id="DejaVuSans-34" d="M 2419 4116 
L 825 1625 
L 2419 1625 
L 2419 4116 
z
M 2253 4666 
L 3047 4666 
L 3047 1625 
L 3713 1625 
L 3713 1100 
L 3047 1100 
L 3047 0 
L 2419 0 
L 2419 1100 
L 313 1100 
L 313 1709 
L 2253 4666 
z
" transform="scale(0.015625)"/>
       </defs>
       <use xlink:href="#DejaVuSans-34"/>
      </g>
     </g>
    </g>
    <g id="xtick_4">
     <g id="line2d_4">
      <g>
       <use xlink:href="#m88f9a31896" x="247.844866" y="307.584" style="stroke: #000000; stroke-width: 0.8"/>
      </g>
     </g>
     <g id="text_4">
      <!-- 6 -->
      <g transform="translate(244.663616 322.182437) scale(0.1 -0.1)">
       <defs>
        <path id="DejaVuSans-36" d="M 2113 2584 
Q 1688 2584 1439 2293 
Q 1191 2003 1191 1497 
Q 1191 994 1439 701 
Q 1688 409 2113 409 
Q 2538 409 2786 701 
Q 3034 994 3034 1497 
Q 3034 2003 2786 2293 
Q 2538 2584 2113 2584 
z
M 3366 4563 
L 3366 3988 
Q 3128 4100 2886 4159 
Q 2644 4219 2406 4219 
Q 1781 4219 1451 3797 
Q 1122 3375 1075 2522 
Q 1259 2794 1537 2939 
Q 1816 3084 2150 3084 
Q 2853 3084 3261 2657 
Q 3669 2231 3669 1497 
Q 3669 778 3244 343 
Q 2819 -91 2113 -91 
Q 1303 -91 875 529 
Q 447 1150 447 2328 
Q 447 3434 972 4092 
Q 1497 4750 2381 4750 
Q 2619 4750 2861 4703 
Q 3103 4656 3366 4563 
z
" transform="scale(0.015625)"/>
       </defs>
       <use xlink:href="#DejaVuSans-36"/>
      </g>
     </g>
    </g>
    <g id="xtick_5">
     <g id="line2d_5">
      <g>
       <use xlink:href="#m88f9a31896" x="305.848912" y="307.584" style="stroke: #000000; stroke-width: 0.8"/>
      </g>
     </g>
     <g id="text_5">
      <!-- 8 -->
      <g transform="translate(302.667662 322.182437) scale(0.1 -0.1)">
       <defs>
        <path id="DejaVuSans-38" d="M 2034 2216 
Q 1584 2216 1326 1975 
Q 1069 1734 1069 1313 
Q 1069 891 1326 650 
Q 1584 409 2034 409 
Q 2484 409 2743 651 
Q 3003 894 3003 1313 
Q 3003 1734 2745 1975 
Q 2488 2216 2034 2216 
z
M 1403 2484 
Q 997 2584 770 2862 
Q 544 3141 544 3541 
Q 544 4100 942 4425 
Q 1341 4750 2034 4750 
Q 2731 4750 3128 4425 
Q 3525 4100 3525 3541 
Q 3525 3141 3298 2862 
Q 3072 2584 2669 2484 
Q 3125 2378 3379 2068 
Q 3634 1759 3634 1313 
Q 3634 634 3220 271 
Q 2806 -91 2034 -91 
Q 1263 -91 848 271 
Q 434 634 434 1313 
Q 434 1759 690 2068 
Q 947 2378 1403 2484 
z
M 1172 3481 
Q 1172 3119 1398 2916 
Q 1625 2713 2034 2713 
Q 2441 2713 2670 2916 
Q 2900 3119 2900 3481 
Q 2900 3844 2670 4047 
Q 2441 4250 2034 4250 
Q 1625 4250 1398 4047 
Q 1172 3844 1172 3481 
z
" transform="scale(0.015625)"/>
       </defs>
       <use xlink:href="#DejaVuSans-38"/>
      </g>
     </g>
    </g>
    <g id="xtick_6">
     <g id="line2d_6">
      <g>
       <use xlink:href="#m88f9a31896" x="363.852959" y="307.584" style="stroke: #000000; stroke-width: 0.8"/>
      </g>
     </g>
     <g id="text_6">
      <!-- 10 -->
      <g transform="translate(357.490459 322.182437) scale(0.1 -0.1)">
       <defs>
        <path id="DejaVuSans-31" d="M 794 531 
L 1825 531 
L 1825 4091 
L 703 3866 
L 703 4441 
L 1819 4666 
L 2450 4666 
L 2450 531 
L 3481 531 
L 3481 0 
L 794 0 
L 794 531 
z
" transform="scale(0.015625)"/>
       </defs>
       <use xlink:href="#DejaVuSans-31"/>
       <use xlink:href="#DejaVuSans-30" x="63.623047"/>
      </g>
     </g>
    </g>
   </g>
   <g id="matplotlib.axis_2">
    <g id="ytick_1">
     <g id="line2d_7">
      <defs>
       <path id="m57cbc20f9c" d="M 0 0 
L -3.5 0 
" style="stroke: #000000; stroke-width: 0.8"/>
      </defs>
      <g>
       <use xlink:href="#m57cbc20f9c" x="57.6" y="295.488" style="stroke: #000000; stroke-width: 0.8"/>
      </g>
     </g>
     <g id="text_7">
      <!-- 0 -->
      <g transform="translate(44.2375 299.287219) scale(0.1 -0.1)">
       <use xlink:href="#DejaVuSans-30"/>
      </g>
     </g>
    </g>
    <g id="ytick_2">
     <g id="line2d_8">
      <g>
       <use xlink:href="#m57cbc20f9c" x="57.6" y="252.26563" style="stroke: #000000; stroke-width: 0.8"/>
      </g>
     </g>
     <g id="text_8">
      <!-- 2 -->
      <g transform="translate(44.2375 256.064849) scale(0.1 -0.1)">
       <use xlink:href="#DejaVuSans-32"/>
      </g>
     </g>
    </g>
    <g id="ytick_3">
     <g id="line2d_9">
      <g>
       <use xlink:href="#m57cbc20f9c" x="57.6" y="209.04326" style="stroke: #000000; stroke-width: 0.8"/>
      </g>
     </g>
     <g id="text_9">
      <!-- 4 -->
      <g transform="translate(44.2375 212.842479) scale(0.1 -0.1)">
       <use xlink:href="#DejaVuSans-34"/>
      </g>
     </g>
    </g>
    <g id="ytick_4">
     <g id="line2d_10">
      <g>
       <use xlink:href="#m57cbc20f9c" x="57.6" y="165.82089" style="stroke: #000000; stroke-width: 0.8"/>
      </g>
     </g>
     <g id="text_10">
      <!-- 6 -->
      <g transform="translate(44.2375 169.620109) scale(0.1 -0.1)">
       <use xlink:href="#DejaVuSans-36"/>
      </g>
     </g>
    </g>
    <g id="ytick_5">
     <g id="line2d_11">
      <g>
       <use xlink:href="#m57cbc20f9c" x="57.6" y="122.59852" style="stroke: #000000; stroke-width: 0.8"/>
      </g>
     </g>
     <g id="text_11">
      <!-- 8 -->
      <g transform="translate(44.2375 126.397739) scale(0.1 -0.1)">
       <use xlink:href="#DejaVuSans-38"/>
      </g>
     </g>
    </g>
    <g id="ytick_6">
     <g id="line2d_12">
      <g>
       <use xlink:href="#m57cbc20f9c" x="57.6" y="79.37615" style="stroke: #000000; stroke-width: 0.8"/>
      </g>
     </g>
     <g id="text_12">
      <!-- 10 -->
      <g transform="translate(37.875 83.175369) scale(0.1 -0.1)">
       <use xlink:href="#DejaVuSans-31"/>
       <use xlink:href="#DejaVuSans-30" x="63.623047"/>
      </g>
     </g>
    </g>
   </g>
   <g id="line2d_13">
    <defs>
     <path id="m2697af6ae5" d="M -3 3 
L 3 -3 
M -3 -3 
L 3 3 
" style="stroke: #ff0000"/>
    </defs>
    <g clip-path="url(#pbe64a485b4)">
     <use xlink:href="#m2697af6ae5" x="91.057121" y="285.040869" style="fill: #ff0000; stroke: #ff0000"/>
     <use xlink:href="#m2697af6ae5" x="102.330967" y="265.857363" style="fill: #ff0000; stroke: #ff0000"/>
     <use xlink:href="#m2697af6ae5" x="105.782766" y="255.880255" style="fill: #ff0000; stroke: #ff0000"/>
     <use xlink:href="#m2697af6ae5" x="144.305905" y="237.831653" style="fill: #ff0000; stroke: #ff0000"/>
     <use xlink:href="#m2697af6ae5" x="146.707523" y="231.298809" style="fill: #ff0000; stroke: #ff0000"/>
     <use xlink:href="#m2697af6ae5" x="176.01649" y="215.947815" style="fill: #ff0000; stroke: #ff0000"/>
     <use xlink:href="#m2697af6ae5" x="193.490083" y="203.667333" style="fill: #ff0000; stroke: #ff0000"/>
     <use xlink:href="#m2697af6ae5" x="207.729059" y="195.13397" style="fill: #ff0000; stroke: #ff0000"/>
     <use xlink:href="#m2697af6ae5" x="228.675265" y="185.179147" style="fill: #ff0000; stroke: #ff0000"/>
     <use xlink:href="#m2697af6ae5" x="237.476606" y="178.362977" style="fill: #ff0000; stroke: #ff0000"/>
     <use xlink:href="#m2697af6ae5" x="245.909349" y="172.033587" style="fill: #ff0000; stroke: #ff0000"/>
     <use xlink:href="#m2697af6ae5" x="248.387621" y="165.939841" style="fill: #ff0000; stroke: #ff0000"/>
     <use xlink:href="#m2697af6ae5" x="256.953676" y="160.218152" style="fill: #ff0000; stroke: #ff0000"/>
     <use xlink:href="#m2697af6ae5" x="263.048799" y="154.778048" style="fill: #ff0000; stroke: #ff0000"/>
     <use xlink:href="#m2697af6ae5" x="273.791197" y="149.626759" style="fill: #ff0000; stroke: #ff0000"/>
     <use xlink:href="#m2697af6ae5" x="281.615228" y="144.884438" style="fill: #ff0000; stroke: #ff0000"/>
     <use xlink:href="#m2697af6ae5" x="276.046951" y="141.457869" style="fill: #ff0000; stroke: #ff0000"/>
     <use xlink:href="#m2697af6ae5" x="277.731137" y="140.459433" style="fill: #ff0000; stroke: #ff0000"/>
     <use xlink:href="#m2697af6ae5" x="293.609829" y="137.891598" style="fill: #ff0000; stroke: #ff0000"/>
     <use xlink:href="#m2697af6ae5" x="302.855153" y="136.189325" style="fill: #ff0000; stroke: #ff0000"/>
     <use xlink:href="#m2697af6ae5" x="311.580731" y="135.334419" style="fill: #ff0000; stroke: #ff0000"/>
     <use xlink:href="#m2697af6ae5" x="311.674775" y="130.186464" style="fill: #ff0000; stroke: #ff0000"/>
     <use xlink:href="#m2697af6ae5" x="326.028005" y="125.78924" style="fill: #ff0000; stroke: #ff0000"/>
     <use xlink:href="#m2697af6ae5" x="321.941133" y="117.061408" style="fill: #ff0000; stroke: #ff0000"/>
     <use xlink:href="#m2697af6ae5" x="345.051312" y="115.463549" style="fill: #ff0000; stroke: #ff0000"/>
     <use xlink:href="#m2697af6ae5" x="348.040218" y="111.016661" style="fill: #ff0000; stroke: #ff0000"/>
     <use xlink:href="#m2697af6ae5" x="341.178592" y="108.084478" style="fill: #ff0000; stroke: #ff0000"/>
     <use xlink:href="#m2697af6ae5" x="327.214047" y="105.969057" style="fill: #ff0000; stroke: #ff0000"/>
     <use xlink:href="#m2697af6ae5" x="329.302426" y="102.81305" style="fill: #ff0000; stroke: #ff0000"/>
     <use xlink:href="#m2697af6ae5" x="292.355064" y="99.887905" style="fill: #ff0000; stroke: #ff0000"/>
     <use xlink:href="#m2697af6ae5" x="364.623466" y="96.710415" style="fill: #ff0000; stroke: #ff0000"/>
     <use xlink:href="#m2697af6ae5" x="389.514291" y="91.627823" style="fill: #ff0000; stroke: #ff0000"/>
     <use xlink:href="#m2697af6ae5" x="398.487273" y="87.374483" style="fill: #ff0000; stroke: #ff0000"/>
     <use xlink:href="#m2697af6ae5" x="379.691817" y="83.440135" style="fill: #ff0000; stroke: #ff0000"/>
     <use xlink:href="#m2697af6ae5" x="390.25588" y="80.873956" style="fill: #ff0000; stroke: #ff0000"/>
     <use xlink:href="#m2697af6ae5" x="397.43964" y="79.345241" style="fill: #ff0000; stroke: #ff0000"/>
    </g>
   </g>
   <g id="line2d_14">
    <defs>
     <path id="mb379869196" d="M -3 3 
L 3 -3 
M -3 -3 
L 3 3 
" style="stroke: #0000ff"/>
    </defs>
    <g clip-path="url(#pbe64a485b4)">
     <use xlink:href="#mb379869196" x="73.83274" y="295.488" style="fill: #0000ff; stroke: #0000ff"/>
     <use xlink:href="#mb379869196" x="73.832727" y="295.487998" style="fill: #0000ff; stroke: #0000ff"/>
     <use xlink:href="#mb379869196" x="73.832741" y="295.487996" style="fill: #0000ff; stroke: #0000ff"/>
     <use xlink:href="#mb379869196" x="73.832737" y="295.487991" style="fill: #0000ff; stroke: #0000ff"/>
     <use xlink:href="#mb379869196" x="73.832731" y="295.487989" style="fill: #0000ff; stroke: #0000ff"/>
     <use xlink:href="#mb379869196" x="73.832727" y="295.487984" style="fill: #0000ff; stroke: #0000ff"/>
     <use xlink:href="#mb379869196" x="73.832727" y="295.487978" style="fill: #0000ff; stroke: #0000ff"/>
     <use xlink:href="#mb379869196" x="73.832727" y="295.487974" style="fill: #0000ff; stroke: #0000ff"/>
     <use xlink:href="#mb379869196" x="73.832838" y="295.487969" style="fill: #0000ff; stroke: #0000ff"/>
     <use xlink:href="#mb379869196" x="73.832727" y="295.487965" style="fill: #0000ff; stroke: #0000ff"/>
     <use xlink:href="#mb379869196" x="73.832727" y="295.487961" style="fill: #0000ff; stroke: #0000ff"/>
     <use xlink:href="#mb379869196" x="73.832727" y="295.487957" style="fill: #0000ff; stroke: #0000ff"/>
     <use xlink:href="#mb379869196" x="73.832727" y="295.487953" style="fill: #0000ff; stroke: #0000ff"/>
     <use xlink:href="#mb379869196" x="73.832727" y="295.487949" style="fill: #0000ff; stroke: #0000ff"/>
     <use xlink:href="#mb379869196" x="73.832727" y="295.487945" style="fill: #0000ff; stroke: #0000ff"/>
     <use xlink:href="#mb379869196" x="73.832727" y="295.487941" style="fill: #0000ff; stroke: #0000ff"/>
     <use xlink:href="#mb379869196" x="73.832727" y="295.487937" style="fill: #0000ff; stroke: #0000ff"/>
     <use xlink:href="#mb379869196" x="73.832727" y="295.487933" style="fill: #0000ff; stroke: #0000ff"/>
     <use xlink:href="#mb379869196" x="73.832727" y="295.487921" style="fill: #0000ff; stroke: #0000ff"/>
     <use xlink:href="#mb379869196" x="73.832829" y="295.487913" style="fill: #0000ff; stroke: #0000ff"/>
     <use xlink:href="#mb379869196" x="73.832727" y="295.487909" style="fill: #0000ff; stroke: #0000ff"/>
     <use xlink:href="#mb379869196" x="73.832727" y="295.487886" style="fill: #0000ff; stroke: #0000ff"/>
     <use xlink:href="#mb379869196" x="73.832727" y="295.487866" style="fill: #0000ff; stroke: #0000ff"/>
     <use xlink:href="#mb379869196" x="73.832727" y="295.487826" style="fill: #0000ff; stroke: #0000ff"/>
     <use xlink:href="#mb379869196" x="73.832752" y="295.487818" style="fill: #0000ff; stroke: #0000ff"/>
     <use xlink:href="#mb379869196" x="73.832801" y="295.487798" style="fill: #0000ff; stroke: #0000ff"/>
     <use xlink:href="#mb379869196" x="73.832773" y="295.487785" style="fill: #0000ff; stroke: #0000ff"/>
     <use xlink:href="#mb379869196" x="73.832741" y="295.487775" style="fill: #0000ff; stroke: #0000ff"/>
     <use xlink:href="#mb379869196" x="73.832731" y="295.487761" style="fill: #0000ff; stroke: #0000ff"/>
     <use xlink:href="#mb379869196" x="73.832759" y="295.487747" style="fill: #0000ff; stroke: #0000ff"/>
     <use xlink:href="#mb379869196" x="73.832727" y="295.487733" style="fill: #0000ff; stroke: #0000ff"/>
     <use xlink:href="#mb379869196" x="73.83277" y="295.487709" style="fill: #0000ff; stroke: #0000ff"/>
     <use xlink:href="#mb379869196" x="73.832828" y="295.48769" style="fill: #0000ff; stroke: #0000ff"/>
     <use xlink:href="#mb379869196" x="73.832773" y="295.487672" style="fill: #0000ff; stroke: #0000ff"/>
     <use xlink:href="#mb379869196" x="73.832778" y="295.48766" style="fill: #0000ff; stroke: #0000ff"/>
     <use xlink:href="#mb379869196" x="73.832766" y="295.487653" style="fill: #0000ff; stroke: #0000ff"/>
    </g>
   </g>
   <g id="line2d_15">
    <path d="M 73.832727 295.488 
L 398.487273 53.568 
" clip-path="url(#pbe64a485b4)" style="fill: none; stroke: #000000; stroke-width: 1.5; stroke-linecap: square"/>
   </g>
   <g id="patch_3">
    <path d="M 57.6 307.584 
L 57.6 41.472 
" style="fill: none; stroke: #000000; stroke-width: 0.8; stroke-linejoin: miter; stroke-linecap: square"/>
   </g>
   <g id="patch_4">
    <path d="M 414.72 307.584 
L 414.72 41.472 
" style="fill: none; stroke: #000000; stroke-width: 0.8; stroke-linejoin: miter; stroke-linecap: square"/>
   </g>
   <g id="patch_5">
    <path d="M 57.6 307.584 
L 414.72 307.584 
" style="fill: none; stroke: #000000; stroke-width: 0.8; stroke-linejoin: miter; stroke-linecap: square"/>
   </g>
   <g id="patch_6">
    <path d="M 57.6 41.472 
L 414.72 41.472 
" style="fill: none; stroke: #000000; stroke-width: 0.8; stroke-linejoin: miter; stroke-linecap: square"/>
   </g>
  </g>
 </g>
 <defs>
  <clipPath id="pbe64a485b4">
   <rect x="57.6" y="41.472" width="357.12" height="266.112"/>
  </clipPath>
 </defs>
</svg>
