<?xml version="1.0" encoding="utf-8" standalone="no"?>
<!DOCTYPE svg PUBLIC "-//W3C//DTD SVG 1.1//EN"
  "http://www.w3.org/Graphics/SVG/1.1/DTD/svg11.dtd">
<svg xmlns:xlink="http://www.w3.org/1999/xlink" width="460.8pt" height="345.6pt" viewBox="0 0 460.8 345.6" xmlns="http://www.w3.org/2000/svg" version="1.1">
 <metadata>
  <rdf:RDF xmlns:dc="http://purl.org/dc/elements/1.1/" xmlns:cc="http://creativecommons.org/ns#" xmlns:rdf="http://www.w3.org/1999/02/22-rdf-syntax-ns#">
   <cc:Work>
    <dc:type rdf:resource="http://purl.org/dc/dcmitype/StillImage"/>
    <dc:date>2024-05-27T10:53:22.064330</dc:date>
    <dc:format>image/svg+xml</dc:format>
    <dc:creator>
     <cc:Agent>
      <dc:title>Matplotlib v3.8.0, https://matplotlib.org/</dc:title>
     </cc:Agent>
    </dc:creator>
   </cc:Work>
  </rdf:RDF>
 </metadata>
 <defs>
  <style type="text/css">*{stroke-linejoin: round; stroke-linecap: butt}</style>
 </defs>
 <g id="figure_1">
  <g id="patch_1">
   <path d="M 0 345.6 
L 460.8 345.6 
L 460.8 0 
L 0 0 
z
" style="fill: #ffffff"/>
  </g>
  <g id="axes_1">
   <g id="patch_2">
    <path d="M 57.6 307.584 
L 414.72 307.584 
L 414.72 41.472 
L 57.6 41.472 
z
" style="fill: #ffffff"/>
   </g>
   <g id="matplotlib.axis_1">
    <g id="xtick_1">
     <g id="line2d_1">
      <defs>
       <path id="m0c98a5c79d" d="M 0 0 
L 0 3.5 
" style="stroke: #000000; stroke-width: 0.8"/>
      </defs>
      <g>
       <use xlink:href="#m0c98a5c79d" x="73.835188" y="307.584" style="stroke: #000000; stroke-width: 0.8"/>
      </g>
     </g>
     <g id="text_1">
      <!-- 0 -->
      <g transform="translate(70.653938 322.182437) scale(0.1 -0.1)">
       <defs>
        <path id="DejaVuSans-30" d="M 2034 4250 
Q 1547 4250 1301 3770 
Q 1056 3291 1056 2328 
Q 1056 1369 1301 889 
Q 1547 409 2034 409 
Q 2525 409 2770 889 
Q 3016 1369 3016 2328 
Q 3016 3291 2770 3770 
Q 2525 4250 2034 4250 
z
M 2034 4750 
Q 2819 4750 3233 4129 
Q 3647 3509 3647 2328 
Q 3647 1150 3233 529 
Q 2819 -91 2034 -91 
Q 1250 -91 836 529 
Q 422 1150 422 2328 
Q 422 3509 836 4129 
Q 1250 4750 2034 4750 
z
" transform="scale(0.015625)"/>
       </defs>
       <use xlink:href="#DejaVuSans-30"/>
      </g>
     </g>
    </g>
    <g id="xtick_2">
     <g id="line2d_2">
      <g>
       <use xlink:href="#m0c98a5c79d" x="131.7218" y="307.584" style="stroke: #000000; stroke-width: 0.8"/>
      </g>
     </g>
     <g id="text_2">
      <!-- 10 -->
      <g transform="translate(125.3593 322.182437) scale(0.1 -0.1)">
       <defs>
        <path id="DejaVuSans-31" d="M 794 531 
L 1825 531 
L 1825 4091 
L 703 3866 
L 703 4441 
L 1819 4666 
L 2450 4666 
L 2450 531 
L 3481 531 
L 3481 0 
L 794 0 
L 794 531 
z
" transform="scale(0.015625)"/>
       </defs>
       <use xlink:href="#DejaVuSans-31"/>
       <use xlink:href="#DejaVuSans-30" x="63.623047"/>
      </g>
     </g>
    </g>
    <g id="xtick_3">
     <g id="line2d_3">
      <g>
       <use xlink:href="#m0c98a5c79d" x="189.608413" y="307.584" style="stroke: #000000; stroke-width: 0.8"/>
      </g>
     </g>
     <g id="text_3">
      <!-- 20 -->
      <g transform="translate(183.245913 322.182437) scale(0.1 -0.1)">
       <defs>
        <path id="DejaVuSans-32" d="M 1228 531 
L 3431 531 
L 3431 0 
L 469 0 
L 469 531 
Q 828 903 1448 1529 
Q 2069 2156 2228 2338 
Q 2531 2678 2651 2914 
Q 2772 3150 2772 3378 
Q 2772 3750 2511 3984 
Q 2250 4219 1831 4219 
Q 1534 4219 1204 4116 
Q 875 4013 500 3803 
L 500 4441 
Q 881 4594 1212 4672 
Q 1544 4750 1819 4750 
Q 2544 4750 2975 4387 
Q 3406 4025 3406 3419 
Q 3406 3131 3298 2873 
Q 3191 2616 2906 2266 
Q 2828 2175 2409 1742 
Q 1991 1309 1228 531 
z
" transform="scale(0.015625)"/>
       </defs>
       <use xlink:href="#DejaVuSans-32"/>
       <use xlink:href="#DejaVuSans-30" x="63.623047"/>
      </g>
     </g>
    </g>
    <g id="xtick_4">
     <g id="line2d_4">
      <g>
       <use xlink:href="#m0c98a5c79d" x="247.495025" y="307.584" style="stroke: #000000; stroke-width: 0.8"/>
      </g>
     </g>
     <g id="text_4">
      <!-- 30 -->
      <g transform="translate(241.132525 322.182437) scale(0.1 -0.1)">
       <defs>
        <path id="DejaVuSans-33" d="M 2597 2516 
Q 3050 2419 3304 2112 
Q 3559 1806 3559 1356 
Q 3559 666 3084 287 
Q 2609 -91 1734 -91 
Q 1441 -91 1130 -33 
Q 819 25 488 141 
L 488 750 
Q 750 597 1062 519 
Q 1375 441 1716 441 
Q 2309 441 2620 675 
Q 2931 909 2931 1356 
Q 2931 1769 2642 2001 
Q 2353 2234 1838 2234 
L 1294 2234 
L 1294 2753 
L 1863 2753 
Q 2328 2753 2575 2939 
Q 2822 3125 2822 3475 
Q 2822 3834 2567 4026 
Q 2313 4219 1838 4219 
Q 1578 4219 1281 4162 
Q 984 4106 628 3988 
L 628 4550 
Q 988 4650 1302 4700 
Q 1616 4750 1894 4750 
Q 2613 4750 3031 4423 
Q 3450 4097 3450 3541 
Q 3450 3153 3228 2886 
Q 3006 2619 2597 2516 
z
" transform="scale(0.015625)"/>
       </defs>
       <use xlink:href="#DejaVuSans-33"/>
       <use xlink:href="#DejaVuSans-30" x="63.623047"/>
      </g>
     </g>
    </g>
    <g id="xtick_5">
     <g id="line2d_5">
      <g>
       <use xlink:href="#m0c98a5c79d" x="305.381637" y="307.584" style="stroke: #000000; stroke-width: 0.8"/>
      </g>
     </g>
     <g id="text_5">
      <!-- 40 -->
      <g transform="translate(299.019137 322.182437) scale(0.1 -0.1)">
       <defs>
        <path id="DejaVuSans-34" d="M 2419 4116 
L 825 1625 
L 2419 1625 
L 2419 4116 
z
M 2253 4666 
L 3047 4666 
L 3047 1625 
L 3713 1625 
L 3713 1100 
L 3047 1100 
L 3047 0 
L 2419 0 
L 2419 1100 
L 313 1100 
L 313 1709 
L 2253 4666 
z
" transform="scale(0.015625)"/>
       </defs>
       <use xlink:href="#DejaVuSans-34"/>
       <use xlink:href="#DejaVuSans-30" x="63.623047"/>
      </g>
     </g>
    </g>
    <g id="xtick_6">
     <g id="line2d_6">
      <g>
       <use xlink:href="#m0c98a5c79d" x="363.268249" y="307.584" style="stroke: #000000; stroke-width: 0.8"/>
      </g>
     </g>
     <g id="text_6">
      <!-- 50 -->
      <g transform="translate(356.905749 322.182437) scale(0.1 -0.1)">
       <defs>
        <path id="DejaVuSans-35" d="M 691 4666 
L 3169 4666 
L 3169 4134 
L 1269 4134 
L 1269 2991 
Q 1406 3038 1543 3061 
Q 1681 3084 1819 3084 
Q 2600 3084 3056 2656 
Q 3513 2228 3513 1497 
Q 3513 744 3044 326 
Q 2575 -91 1722 -91 
Q 1428 -91 1123 -41 
Q 819 9 494 109 
L 494 744 
Q 775 591 1075 516 
Q 1375 441 1709 441 
Q 2250 441 2565 725 
Q 2881 1009 2881 1497 
Q 2881 1984 2565 2268 
Q 2250 2553 1709 2553 
Q 1456 2553 1204 2497 
Q 953 2441 691 2322 
L 691 4666 
z
" transform="scale(0.015625)"/>
       </defs>
       <use xlink:href="#DejaVuSans-35"/>
       <use xlink:href="#DejaVuSans-30" x="63.623047"/>
      </g>
     </g>
    </g>
   </g>
   <g id="matplotlib.axis_2">
    <g id="ytick_1">
     <g id="line2d_7">
      <defs>
       <path id="m4d5ac18a1a" d="M 0 0 
L -3.5 0 
" style="stroke: #000000; stroke-width: 0.8"/>
      </defs>
      <g>
       <use xlink:href="#m4d5ac18a1a" x="57.6" y="295.488" style="stroke: #000000; stroke-width: 0.8"/>
      </g>
     </g>
     <g id="text_7">
      <!-- 0 -->
      <g transform="translate(44.2375 299.287219) scale(0.1 -0.1)">
       <use xlink:href="#DejaVuSans-30"/>
      </g>
     </g>
    </g>
    <g id="ytick_2">
     <g id="line2d_8">
      <g>
       <use xlink:href="#m4d5ac18a1a" x="57.6" y="252.35281" style="stroke: #000000; stroke-width: 0.8"/>
      </g>
     </g>
     <g id="text_8">
      <!-- 10 -->
      <g transform="translate(37.875 256.152029) scale(0.1 -0.1)">
       <use xlink:href="#DejaVuSans-31"/>
       <use xlink:href="#DejaVuSans-30" x="63.623047"/>
      </g>
     </g>
    </g>
    <g id="ytick_3">
     <g id="line2d_9">
      <g>
       <use xlink:href="#m4d5ac18a1a" x="57.6" y="209.217621" style="stroke: #000000; stroke-width: 0.8"/>
      </g>
     </g>
     <g id="text_9">
      <!-- 20 -->
      <g transform="translate(37.875 213.016839) scale(0.1 -0.1)">
       <use xlink:href="#DejaVuSans-32"/>
       <use xlink:href="#DejaVuSans-30" x="63.623047"/>
      </g>
     </g>
    </g>
    <g id="ytick_4">
     <g id="line2d_10">
      <g>
       <use xlink:href="#m4d5ac18a1a" x="57.6" y="166.082431" style="stroke: #000000; stroke-width: 0.8"/>
      </g>
     </g>
     <g id="text_10">
      <!-- 30 -->
      <g transform="translate(37.875 169.88165) scale(0.1 -0.1)">
       <use xlink:href="#DejaVuSans-33"/>
       <use xlink:href="#DejaVuSans-30" x="63.623047"/>
      </g>
     </g>
    </g>
    <g id="ytick_5">
     <g id="line2d_11">
      <g>
       <use xlink:href="#m4d5ac18a1a" x="57.6" y="122.947241" style="stroke: #000000; stroke-width: 0.8"/>
      </g>
     </g>
     <g id="text_11">
      <!-- 40 -->
      <g transform="translate(37.875 126.74646) scale(0.1 -0.1)">
       <use xlink:href="#DejaVuSans-34"/>
       <use xlink:href="#DejaVuSans-30" x="63.623047"/>
      </g>
     </g>
    </g>
    <g id="ytick_6">
     <g id="line2d_12">
      <g>
       <use xlink:href="#m4d5ac18a1a" x="57.6" y="79.812052" style="stroke: #000000; stroke-width: 0.8"/>
      </g>
     </g>
     <g id="text_12">
      <!-- 50 -->
      <g transform="translate(37.875 83.611271) scale(0.1 -0.1)">
       <use xlink:href="#DejaVuSans-35"/>
       <use xlink:href="#DejaVuSans-30" x="63.623047"/>
      </g>
     </g>
    </g>
   </g>
   <g id="line2d_13">
    <defs>
     <path id="mdba93c23fb" d="M -3 3 
L 3 -3 
M -3 -3 
L 3 3 
" style="stroke: #ff0000"/>
    </defs>
    <g clip-path="url(#p2a1216619b)">
     <use xlink:href="#mdba93c23fb" x="73.835188" y="295.488" style="fill: #ff0000; stroke: #ff0000"/>
     <use xlink:href="#mdba93c23fb" x="77.810801" y="286.176631" style="fill: #ff0000; stroke: #ff0000"/>
     <use xlink:href="#mdba93c23fb" x="80.297269" y="277.591941" style="fill: #ff0000; stroke: #ff0000"/>
     <use xlink:href="#mdba93c23fb" x="111.489148" y="260.516972" style="fill: #ff0000; stroke: #ff0000"/>
     <use xlink:href="#mdba93c23fb" x="134.927005" y="252.573358" style="fill: #ff0000; stroke: #ff0000"/>
     <use xlink:href="#mdba93c23fb" x="164.850223" y="234.297542" style="fill: #ff0000; stroke: #ff0000"/>
     <use xlink:href="#mdba93c23fb" x="182.698985" y="219.585403" style="fill: #ff0000; stroke: #ff0000"/>
     <use xlink:href="#mdba93c23fb" x="190.75187" y="209.721022" style="fill: #ff0000; stroke: #ff0000"/>
     <use xlink:href="#mdba93c23fb" x="202.288366" y="199.025585" style="fill: #ff0000; stroke: #ff0000"/>
     <use xlink:href="#mdba93c23fb" x="209.391219" y="192.448157" style="fill: #ff0000; stroke: #ff0000"/>
     <use xlink:href="#mdba93c23fb" x="212.095203" y="186.902836" style="fill: #ff0000; stroke: #ff0000"/>
     <use xlink:href="#mdba93c23fb" x="213.031781" y="182.233878" style="fill: #ff0000; stroke: #ff0000"/>
     <use xlink:href="#mdba93c23fb" x="225.882183" y="178.399085" style="fill: #ff0000; stroke: #ff0000"/>
     <use xlink:href="#mdba93c23fb" x="227.169885" y="175.247608" style="fill: #ff0000; stroke: #ff0000"/>
     <use xlink:href="#mdba93c23fb" x="229.860901" y="172.65645" style="fill: #ff0000; stroke: #ff0000"/>
     <use xlink:href="#mdba93c23fb" x="235.411902" y="170.516128" style="fill: #ff0000; stroke: #ff0000"/>
     <use xlink:href="#mdba93c23fb" x="235.1669" y="168.728562" style="fill: #ff0000; stroke: #ff0000"/>
     <use xlink:href="#mdba93c23fb" x="232.884466" y="167.229557" style="fill: #ff0000; stroke: #ff0000"/>
     <use xlink:href="#mdba93c23fb" x="245.683974" y="163.775707" style="fill: #ff0000; stroke: #ff0000"/>
     <use xlink:href="#mdba93c23fb" x="260.068022" y="161.976505" style="fill: #ff0000; stroke: #ff0000"/>
     <use xlink:href="#mdba93c23fb" x="259.442503" y="161.151487" style="fill: #ff0000; stroke: #ff0000"/>
     <use xlink:href="#mdba93c23fb" x="279.397156" y="156.61796" style="fill: #ff0000; stroke: #ff0000"/>
     <use xlink:href="#mdba93c23fb" x="280.365041" y="152.892529" style="fill: #ff0000; stroke: #ff0000"/>
     <use xlink:href="#mdba93c23fb" x="290.278743" y="148.98146" style="fill: #ff0000; stroke: #ff0000"/>
     <use xlink:href="#mdba93c23fb" x="293.904654" y="147.948704" style="fill: #ff0000; stroke: #ff0000"/>
     <use xlink:href="#mdba93c23fb" x="292.560603" y="145.325294" style="fill: #ff0000; stroke: #ff0000"/>
     <use xlink:href="#mdba93c23fb" x="312.587622" y="143.895575" style="fill: #ff0000; stroke: #ff0000"/>
     <use xlink:href="#mdba93c23fb" x="306.737443" y="139.818201" style="fill: #ff0000; stroke: #ff0000"/>
     <use xlink:href="#mdba93c23fb" x="303.661188" y="137.034098" style="fill: #ff0000; stroke: #ff0000"/>
     <use xlink:href="#mdba93c23fb" x="300.131469" y="134.967212" style="fill: #ff0000; stroke: #ff0000"/>
     <use xlink:href="#mdba93c23fb" x="305.17986" y="131.772211" style="fill: #ff0000; stroke: #ff0000"/>
     <use xlink:href="#mdba93c23fb" x="308.981609" y="128.669455" style="fill: #ff0000; stroke: #ff0000"/>
     <use xlink:href="#mdba93c23fb" x="333.651143" y="125.298223" style="fill: #ff0000; stroke: #ff0000"/>
     <use xlink:href="#mdba93c23fb" x="349.979204" y="118.906458" style="fill: #ff0000; stroke: #ff0000"/>
     <use xlink:href="#mdba93c23fb" x="361.166792" y="112.889087" style="fill: #ff0000; stroke: #ff0000"/>
     <use xlink:href="#mdba93c23fb" x="359.613131" y="106.545745" style="fill: #ff0000; stroke: #ff0000"/>
     <use xlink:href="#mdba93c23fb" x="372.898358" y="101.846421" style="fill: #ff0000; stroke: #ff0000"/>
     <use xlink:href="#mdba93c23fb" x="398.487273" y="98.787573" style="fill: #ff0000; stroke: #ff0000"/>
    </g>
   </g>
   <g id="line2d_14">
    <defs>
     <path id="m12f0b153a3" d="M -3 3 
L 3 -3 
M -3 -3 
L 3 3 
" style="stroke: #0000ff"/>
    </defs>
    <g clip-path="url(#p2a1216619b)">
     <use xlink:href="#m12f0b153a3" x="73.837667" y="295.488" style="fill: #0000ff; stroke: #0000ff"/>
     <use xlink:href="#m12f0b153a3" x="73.832727" y="295.486484" style="fill: #0000ff; stroke: #0000ff"/>
     <use xlink:href="#m12f0b153a3" x="73.839609" y="295.484936" style="fill: #0000ff; stroke: #0000ff"/>
     <use xlink:href="#m12f0b153a3" x="73.83681" y="295.481362" style="fill: #0000ff; stroke: #0000ff"/>
     <use xlink:href="#m12f0b153a3" x="73.838616" y="295.479431" style="fill: #0000ff; stroke: #0000ff"/>
     <use xlink:href="#m12f0b153a3" x="73.848019" y="295.474135" style="fill: #0000ff; stroke: #0000ff"/>
     <use xlink:href="#m12f0b153a3" x="73.856713" y="295.468656" style="fill: #0000ff; stroke: #0000ff"/>
     <use xlink:href="#m12f0b153a3" x="73.864508" y="295.464041" style="fill: #0000ff; stroke: #0000ff"/>
     <use xlink:href="#m12f0b153a3" x="73.878685" y="295.457661" style="fill: #0000ff; stroke: #0000ff"/>
     <use xlink:href="#m12f0b153a3" x="73.871467" y="295.452597" style="fill: #0000ff; stroke: #0000ff"/>
     <use xlink:href="#m12f0b153a3" x="73.875664" y="295.447223" style="fill: #0000ff; stroke: #0000ff"/>
     <use xlink:href="#m12f0b153a3" x="73.892025" y="295.441451" style="fill: #0000ff; stroke: #0000ff"/>
     <use xlink:href="#m12f0b153a3" x="73.898255" y="295.435345" style="fill: #0000ff; stroke: #0000ff"/>
     <use xlink:href="#m12f0b153a3" x="73.909262" y="295.428848" style="fill: #0000ff; stroke: #0000ff"/>
     <use xlink:href="#m12f0b153a3" x="73.921234" y="295.421922" style="fill: #0000ff; stroke: #0000ff"/>
     <use xlink:href="#m12f0b153a3" x="73.93033" y="295.414535" style="fill: #0000ff; stroke: #0000ff"/>
     <use xlink:href="#m12f0b153a3" x="73.954176" y="295.406639" style="fill: #0000ff; stroke: #0000ff"/>
     <use xlink:href="#m12f0b153a3" x="73.964131" y="295.398292" style="fill: #0000ff; stroke: #0000ff"/>
     <use xlink:href="#m12f0b153a3" x="74.049039" y="295.369721" style="fill: #0000ff; stroke: #0000ff"/>
     <use xlink:href="#m12f0b153a3" x="74.15735" y="295.347498" style="fill: #0000ff; stroke: #0000ff"/>
     <use xlink:href="#m12f0b153a3" x="74.206389" y="295.335241" style="fill: #0000ff; stroke: #0000ff"/>
     <use xlink:href="#m12f0b153a3" x="74.768841" y="295.242052" style="fill: #0000ff; stroke: #0000ff"/>
     <use xlink:href="#m12f0b153a3" x="75.505863" y="295.128105" style="fill: #0000ff; stroke: #0000ff"/>
     <use xlink:href="#m12f0b153a3" x="76.373702" y="294.961861" style="fill: #0000ff; stroke: #0000ff"/>
     <use xlink:href="#m12f0b153a3" x="76.645082" y="294.908217" style="fill: #0000ff; stroke: #0000ff"/>
     <use xlink:href="#m12f0b153a3" x="77.288227" y="294.750107" style="fill: #0000ff; stroke: #0000ff"/>
     <use xlink:href="#m12f0b153a3" x="78.152391" y="294.649144" style="fill: #0000ff; stroke: #0000ff"/>
     <use xlink:href="#m12f0b153a3" x="79.333833" y="294.292954" style="fill: #0000ff; stroke: #0000ff"/>
     <use xlink:href="#m12f0b153a3" x="80.235052" y="293.98145" style="fill: #0000ff; stroke: #0000ff"/>
     <use xlink:href="#m12f0b153a3" x="81.120345" y="293.708352" style="fill: #0000ff; stroke: #0000ff"/>
     <use xlink:href="#m12f0b153a3" x="82.326248" y="293.207036" style="fill: #0000ff; stroke: #0000ff"/>
     <use xlink:href="#m12f0b153a3" x="84.672743" y="292.618037" style="fill: #0000ff; stroke: #0000ff"/>
     <use xlink:href="#m12f0b153a3" x="89.633257" y="291.852735" style="fill: #0000ff; stroke: #0000ff"/>
     <use xlink:href="#m12f0b153a3" x="103.609137" y="290.014853" style="fill: #0000ff; stroke: #0000ff"/>
     <use xlink:href="#m12f0b153a3" x="127.398332" y="287.80843" style="fill: #0000ff; stroke: #0000ff"/>
     <use xlink:href="#m12f0b153a3" x="160.623832" y="285.003531" style="fill: #0000ff; stroke: #0000ff"/>
     <use xlink:href="#m12f0b153a3" x="188.878789" y="282.637574" style="fill: #0000ff; stroke: #0000ff"/>
     <use xlink:href="#m12f0b153a3" x="209.527912" y="280.979283" style="fill: #0000ff; stroke: #0000ff"/>
    </g>
   </g>
   <g id="line2d_15">
    <path d="M 73.835188 295.488 
L 398.487273 53.568 
" clip-path="url(#p2a1216619b)" style="fill: none; stroke: #000000; stroke-width: 1.5; stroke-linecap: square"/>
   </g>
   <g id="patch_3">
    <path d="M 57.6 307.584 
L 57.6 41.472 
" style="fill: none; stroke: #000000; stroke-width: 0.8; stroke-linejoin: miter; stroke-linecap: square"/>
   </g>
   <g id="patch_4">
    <path d="M 414.72 307.584 
L 414.72 41.472 
" style="fill: none; stroke: #000000; stroke-width: 0.8; stroke-linejoin: miter; stroke-linecap: square"/>
   </g>
   <g id="patch_5">
    <path d="M 57.6 307.584 
L 414.72 307.584 
" style="fill: none; stroke: #000000; stroke-width: 0.8; stroke-linejoin: miter; stroke-linecap: square"/>
   </g>
   <g id="patch_6">
    <path d="M 57.6 41.472 
L 414.72 41.472 
" style="fill: none; stroke: #000000; stroke-width: 0.8; stroke-linejoin: miter; stroke-linecap: square"/>
   </g>
  </g>
 </g>
 <defs>
  <clipPath id="p2a1216619b">
   <rect x="57.6" y="41.472" width="357.12" height="266.112"/>
  </clipPath>
 </defs>
</svg>
