<?xml version="1.0" encoding="utf-8" standalone="no"?>
<!DOCTYPE svg PUBLIC "-//W3C//DTD SVG 1.1//EN"
  "http://www.w3.org/Graphics/SVG/1.1/DTD/svg11.dtd">
<svg xmlns:xlink="http://www.w3.org/1999/xlink" width="460.8pt" height="345.6pt" viewBox="0 0 460.8 345.6" xmlns="http://www.w3.org/2000/svg" version="1.1">
 <metadata>
  <rdf:RDF xmlns:dc="http://purl.org/dc/elements/1.1/" xmlns:cc="http://creativecommons.org/ns#" xmlns:rdf="http://www.w3.org/1999/02/22-rdf-syntax-ns#">
   <cc:Work>
    <dc:type rdf:resource="http://purl.org/dc/dcmitype/StillImage"/>
    <dc:date>2024-05-27T10:53:44.353868</dc:date>
    <dc:format>image/svg+xml</dc:format>
    <dc:creator>
     <cc:Agent>
      <dc:title>Matplotlib v3.8.0, https://matplotlib.org/</dc:title>
     </cc:Agent>
    </dc:creator>
   </cc:Work>
  </rdf:RDF>
 </metadata>
 <defs>
  <style type="text/css">*{stroke-linejoin: round; stroke-linecap: butt}</style>
 </defs>
 <g id="figure_1">
  <g id="patch_1">
   <path d="M 0 345.6 
L 460.8 345.6 
L 460.8 0 
L 0 0 
z
" style="fill: #ffffff"/>
  </g>
  <g id="axes_1">
   <g id="patch_2">
    <path d="M 57.6 307.584 
L 414.72 307.584 
L 414.72 41.472 
L 57.6 41.472 
z
" style="fill: #ffffff"/>
   </g>
   <g id="matplotlib.axis_1">
    <g id="xtick_1">
     <g id="line2d_1">
      <defs>
       <path id="m2ce4cfb2dd" d="M 0 0 
L 0 3.5 
" style="stroke: #000000; stroke-width: 0.8"/>
      </defs>
      <g>
       <use xlink:href="#m2ce4cfb2dd" x="73.832727" y="307.584" style="stroke: #000000; stroke-width: 0.8"/>
      </g>
     </g>
     <g id="text_1">
      <!-- 0 -->
      <g transform="translate(70.651477 322.182437) scale(0.1 -0.1)">
       <defs>
        <path id="DejaVuSans-30" d="M 2034 4250 
Q 1547 4250 1301 3770 
Q 1056 3291 1056 2328 
Q 1056 1369 1301 889 
Q 1547 409 2034 409 
Q 2525 409 2770 889 
Q 3016 1369 3016 2328 
Q 3016 3291 2770 3770 
Q 2525 4250 2034 4250 
z
M 2034 4750 
Q 2819 4750 3233 4129 
Q 3647 3509 3647 2328 
Q 3647 1150 3233 529 
Q 2819 -91 2034 -91 
Q 1250 -91 836 529 
Q 422 1150 422 2328 
Q 422 3509 836 4129 
Q 1250 4750 2034 4750 
z
" transform="scale(0.015625)"/>
       </defs>
       <use xlink:href="#DejaVuSans-30"/>
      </g>
     </g>
    </g>
    <g id="xtick_2">
     <g id="line2d_2">
      <g>
       <use xlink:href="#m2ce4cfb2dd" x="121.268796" y="307.584" style="stroke: #000000; stroke-width: 0.8"/>
      </g>
     </g>
     <g id="text_2">
      <!-- 5 -->
      <g transform="translate(118.087546 322.182437) scale(0.1 -0.1)">
       <defs>
        <path id="DejaVuSans-35" d="M 691 4666 
L 3169 4666 
L 3169 4134 
L 1269 4134 
L 1269 2991 
Q 1406 3038 1543 3061 
Q 1681 3084 1819 3084 
Q 2600 3084 3056 2656 
Q 3513 2228 3513 1497 
Q 3513 744 3044 326 
Q 2575 -91 1722 -91 
Q 1428 -91 1123 -41 
Q 819 9 494 109 
L 494 744 
Q 775 591 1075 516 
Q 1375 441 1709 441 
Q 2250 441 2565 725 
Q 2881 1009 2881 1497 
Q 2881 1984 2565 2268 
Q 2250 2553 1709 2553 
Q 1456 2553 1204 2497 
Q 953 2441 691 2322 
L 691 4666 
z
" transform="scale(0.015625)"/>
       </defs>
       <use xlink:href="#DejaVuSans-35"/>
      </g>
     </g>
    </g>
    <g id="xtick_3">
     <g id="line2d_3">
      <g>
       <use xlink:href="#m2ce4cfb2dd" x="168.704865" y="307.584" style="stroke: #000000; stroke-width: 0.8"/>
      </g>
     </g>
     <g id="text_3">
      <!-- 10 -->
      <g transform="translate(162.342365 322.182437) scale(0.1 -0.1)">
       <defs>
        <path id="DejaVuSans-31" d="M 794 531 
L 1825 531 
L 1825 4091 
L 703 3866 
L 703 4441 
L 1819 4666 
L 2450 4666 
L 2450 531 
L 3481 531 
L 3481 0 
L 794 0 
L 794 531 
z
" transform="scale(0.015625)"/>
       </defs>
       <use xlink:href="#DejaVuSans-31"/>
       <use xlink:href="#DejaVuSans-30" x="63.623047"/>
      </g>
     </g>
    </g>
    <g id="xtick_4">
     <g id="line2d_4">
      <g>
       <use xlink:href="#m2ce4cfb2dd" x="216.140934" y="307.584" style="stroke: #000000; stroke-width: 0.8"/>
      </g>
     </g>
     <g id="text_4">
      <!-- 15 -->
      <g transform="translate(209.778434 322.182437) scale(0.1 -0.1)">
       <use xlink:href="#DejaVuSans-31"/>
       <use xlink:href="#DejaVuSans-35" x="63.623047"/>
      </g>
     </g>
    </g>
    <g id="xtick_5">
     <g id="line2d_5">
      <g>
       <use xlink:href="#m2ce4cfb2dd" x="263.577003" y="307.584" style="stroke: #000000; stroke-width: 0.8"/>
      </g>
     </g>
     <g id="text_5">
      <!-- 20 -->
      <g transform="translate(257.214503 322.182437) scale(0.1 -0.1)">
       <defs>
        <path id="DejaVuSans-32" d="M 1228 531 
L 3431 531 
L 3431 0 
L 469 0 
L 469 531 
Q 828 903 1448 1529 
Q 2069 2156 2228 2338 
Q 2531 2678 2651 2914 
Q 2772 3150 2772 3378 
Q 2772 3750 2511 3984 
Q 2250 4219 1831 4219 
Q 1534 4219 1204 4116 
Q 875 4013 500 3803 
L 500 4441 
Q 881 4594 1212 4672 
Q 1544 4750 1819 4750 
Q 2544 4750 2975 4387 
Q 3406 4025 3406 3419 
Q 3406 3131 3298 2873 
Q 3191 2616 2906 2266 
Q 2828 2175 2409 1742 
Q 1991 1309 1228 531 
z
" transform="scale(0.015625)"/>
       </defs>
       <use xlink:href="#DejaVuSans-32"/>
       <use xlink:href="#DejaVuSans-30" x="63.623047"/>
      </g>
     </g>
    </g>
    <g id="xtick_6">
     <g id="line2d_6">
      <g>
       <use xlink:href="#m2ce4cfb2dd" x="311.013072" y="307.584" style="stroke: #000000; stroke-width: 0.8"/>
      </g>
     </g>
     <g id="text_6">
      <!-- 25 -->
      <g transform="translate(304.650572 322.182437) scale(0.1 -0.1)">
       <use xlink:href="#DejaVuSans-32"/>
       <use xlink:href="#DejaVuSans-35" x="63.623047"/>
      </g>
     </g>
    </g>
    <g id="xtick_7">
     <g id="line2d_7">
      <g>
       <use xlink:href="#m2ce4cfb2dd" x="358.449141" y="307.584" style="stroke: #000000; stroke-width: 0.8"/>
      </g>
     </g>
     <g id="text_7">
      <!-- 30 -->
      <g transform="translate(352.086641 322.182437) scale(0.1 -0.1)">
       <defs>
        <path id="DejaVuSans-33" d="M 2597 2516 
Q 3050 2419 3304 2112 
Q 3559 1806 3559 1356 
Q 3559 666 3084 287 
Q 2609 -91 1734 -91 
Q 1441 -91 1130 -33 
Q 819 25 488 141 
L 488 750 
Q 750 597 1062 519 
Q 1375 441 1716 441 
Q 2309 441 2620 675 
Q 2931 909 2931 1356 
Q 2931 1769 2642 2001 
Q 2353 2234 1838 2234 
L 1294 2234 
L 1294 2753 
L 1863 2753 
Q 2328 2753 2575 2939 
Q 2822 3125 2822 3475 
Q 2822 3834 2567 4026 
Q 2313 4219 1838 4219 
Q 1578 4219 1281 4162 
Q 984 4106 628 3988 
L 628 4550 
Q 988 4650 1302 4700 
Q 1616 4750 1894 4750 
Q 2613 4750 3031 4423 
Q 3450 4097 3450 3541 
Q 3450 3153 3228 2886 
Q 3006 2619 2597 2516 
z
" transform="scale(0.015625)"/>
       </defs>
       <use xlink:href="#DejaVuSans-33"/>
       <use xlink:href="#DejaVuSans-30" x="63.623047"/>
      </g>
     </g>
    </g>
    <g id="xtick_8">
     <g id="line2d_8">
      <g>
       <use xlink:href="#m2ce4cfb2dd" x="405.88521" y="307.584" style="stroke: #000000; stroke-width: 0.8"/>
      </g>
     </g>
     <g id="text_8">
      <!-- 35 -->
      <g transform="translate(399.52271 322.182437) scale(0.1 -0.1)">
       <use xlink:href="#DejaVuSans-33"/>
       <use xlink:href="#DejaVuSans-35" x="63.623047"/>
      </g>
     </g>
    </g>
   </g>
   <g id="matplotlib.axis_2">
    <g id="ytick_1">
     <g id="line2d_9">
      <defs>
       <path id="mb39d8d9c43" d="M 0 0 
L -3.5 0 
" style="stroke: #000000; stroke-width: 0.8"/>
      </defs>
      <g>
       <use xlink:href="#mb39d8d9c43" x="57.6" y="295.488" style="stroke: #000000; stroke-width: 0.8"/>
      </g>
     </g>
     <g id="text_9">
      <!-- 0 -->
      <g transform="translate(44.2375 299.287219) scale(0.1 -0.1)">
       <use xlink:href="#DejaVuSans-30"/>
      </g>
     </g>
    </g>
    <g id="ytick_2">
     <g id="line2d_10">
      <g>
       <use xlink:href="#mb39d8d9c43" x="57.6" y="260.140478" style="stroke: #000000; stroke-width: 0.8"/>
      </g>
     </g>
     <g id="text_10">
      <!-- 5 -->
      <g transform="translate(44.2375 263.939696) scale(0.1 -0.1)">
       <use xlink:href="#DejaVuSans-35"/>
      </g>
     </g>
    </g>
    <g id="ytick_3">
     <g id="line2d_11">
      <g>
       <use xlink:href="#mb39d8d9c43" x="57.6" y="224.792955" style="stroke: #000000; stroke-width: 0.8"/>
      </g>
     </g>
     <g id="text_11">
      <!-- 10 -->
      <g transform="translate(37.875 228.592174) scale(0.1 -0.1)">
       <use xlink:href="#DejaVuSans-31"/>
       <use xlink:href="#DejaVuSans-30" x="63.623047"/>
      </g>
     </g>
    </g>
    <g id="ytick_4">
     <g id="line2d_12">
      <g>
       <use xlink:href="#mb39d8d9c43" x="57.6" y="189.445433" style="stroke: #000000; stroke-width: 0.8"/>
      </g>
     </g>
     <g id="text_12">
      <!-- 15 -->
      <g transform="translate(37.875 193.244652) scale(0.1 -0.1)">
       <use xlink:href="#DejaVuSans-31"/>
       <use xlink:href="#DejaVuSans-35" x="63.623047"/>
      </g>
     </g>
    </g>
    <g id="ytick_5">
     <g id="line2d_13">
      <g>
       <use xlink:href="#mb39d8d9c43" x="57.6" y="154.097911" style="stroke: #000000; stroke-width: 0.8"/>
      </g>
     </g>
     <g id="text_13">
      <!-- 20 -->
      <g transform="translate(37.875 157.89713) scale(0.1 -0.1)">
       <use xlink:href="#DejaVuSans-32"/>
       <use xlink:href="#DejaVuSans-30" x="63.623047"/>
      </g>
     </g>
    </g>
    <g id="ytick_6">
     <g id="line2d_14">
      <g>
       <use xlink:href="#mb39d8d9c43" x="57.6" y="118.750388" style="stroke: #000000; stroke-width: 0.8"/>
      </g>
     </g>
     <g id="text_14">
      <!-- 25 -->
      <g transform="translate(37.875 122.549607) scale(0.1 -0.1)">
       <use xlink:href="#DejaVuSans-32"/>
       <use xlink:href="#DejaVuSans-35" x="63.623047"/>
      </g>
     </g>
    </g>
    <g id="ytick_7">
     <g id="line2d_15">
      <g>
       <use xlink:href="#mb39d8d9c43" x="57.6" y="83.402866" style="stroke: #000000; stroke-width: 0.8"/>
      </g>
     </g>
     <g id="text_15">
      <!-- 30 -->
      <g transform="translate(37.875 87.202085) scale(0.1 -0.1)">
       <use xlink:href="#DejaVuSans-33"/>
       <use xlink:href="#DejaVuSans-30" x="63.623047"/>
      </g>
     </g>
    </g>
    <g id="ytick_8">
     <g id="line2d_16">
      <g>
       <use xlink:href="#mb39d8d9c43" x="57.6" y="48.055344" style="stroke: #000000; stroke-width: 0.8"/>
      </g>
     </g>
     <g id="text_16">
      <!-- 35 -->
      <g transform="translate(37.875 51.854563) scale(0.1 -0.1)">
       <use xlink:href="#DejaVuSans-33"/>
       <use xlink:href="#DejaVuSans-35" x="63.623047"/>
      </g>
     </g>
    </g>
   </g>
   <g id="line2d_17">
    <defs>
     <path id="m0bcb1442e1" d="M -3 3 
L 3 -3 
M -3 -3 
L 3 3 
" style="stroke: #ff0000"/>
    </defs>
    <g clip-path="url(#p5eebed81c8)">
     <use xlink:href="#m0bcb1442e1" x="97.722633" y="277.813599" style="fill: #ff0000; stroke: #ff0000"/>
     <use xlink:href="#m0bcb1442e1" x="167.614408" y="218.785633" style="fill: #ff0000; stroke: #ff0000"/>
     <use xlink:href="#m0bcb1442e1" x="173.519134" y="183.864626" style="fill: #ff0000; stroke: #ff0000"/>
     <use xlink:href="#m0bcb1442e1" x="223.879336" y="174.089917" style="fill: #ff0000; stroke: #ff0000"/>
     <use xlink:href="#m0bcb1442e1" x="199.238482" y="173.018645" style="fill: #ff0000; stroke: #ff0000"/>
     <use xlink:href="#m0bcb1442e1" x="226.316709" y="170.083836" style="fill: #ff0000; stroke: #ff0000"/>
     <use xlink:href="#m0bcb1442e1" x="241.53705" y="167.33524" style="fill: #ff0000; stroke: #ff0000"/>
     <use xlink:href="#m0bcb1442e1" x="245.63975" y="165.230384" style="fill: #ff0000; stroke: #ff0000"/>
     <use xlink:href="#m0bcb1442e1" x="275.98927" y="162.581458" style="fill: #ff0000; stroke: #ff0000"/>
     <use xlink:href="#m0bcb1442e1" x="280.711756" y="160.651919" style="fill: #ff0000; stroke: #ff0000"/>
     <use xlink:href="#m0bcb1442e1" x="283.260749" y="158.777682" style="fill: #ff0000; stroke: #ff0000"/>
     <use xlink:href="#m0bcb1442e1" x="283.496138" y="156.903708" style="fill: #ff0000; stroke: #ff0000"/>
     <use xlink:href="#m0bcb1442e1" x="292.952501" y="155.064991" style="fill: #ff0000; stroke: #ff0000"/>
     <use xlink:href="#m0bcb1442e1" x="298.547418" y="153.251307" style="fill: #ff0000; stroke: #ff0000"/>
     <use xlink:href="#m0bcb1442e1" x="305.976732" y="151.463665" style="fill: #ff0000; stroke: #ff0000"/>
     <use xlink:href="#m0bcb1442e1" x="317.165487" y="149.692909" style="fill: #ff0000; stroke: #ff0000"/>
     <use xlink:href="#m0bcb1442e1" x="305.679972" y="147.936929" style="fill: #ff0000; stroke: #ff0000"/>
     <use xlink:href="#m0bcb1442e1" x="298.460343" y="146.216505" style="fill: #ff0000; stroke: #ff0000"/>
     <use xlink:href="#m0bcb1442e1" x="316.263945" y="141.150525" style="fill: #ff0000; stroke: #ff0000"/>
     <use xlink:href="#m0bcb1442e1" x="320.503118" y="137.876649" style="fill: #ff0000; stroke: #ff0000"/>
     <use xlink:href="#m0bcb1442e1" x="322.092549" y="136.259947" style="fill: #ff0000; stroke: #ff0000"/>
     <use xlink:href="#m0bcb1442e1" x="328.732005" y="126.840453" style="fill: #ff0000; stroke: #ff0000"/>
     <use xlink:href="#m0bcb1442e1" x="332.144387" y="119.194131" style="fill: #ff0000; stroke: #ff0000"/>
     <use xlink:href="#m0bcb1442e1" x="320.806329" y="104.949651" style="fill: #ff0000; stroke: #ff0000"/>
     <use xlink:href="#m0bcb1442e1" x="337.319798" y="102.460951" style="fill: #ff0000; stroke: #ff0000"/>
     <use xlink:href="#m0bcb1442e1" x="353.915793" y="95.710079" style="fill: #ff0000; stroke: #ff0000"/>
     <use xlink:href="#m0bcb1442e1" x="327.554002" y="91.391304" style="fill: #ff0000; stroke: #ff0000"/>
     <use xlink:href="#m0bcb1442e1" x="321.344126" y="88.336249" style="fill: #ff0000; stroke: #ff0000"/>
     <use xlink:href="#m0bcb1442e1" x="317.823327" y="83.86982" style="fill: #ff0000; stroke: #ff0000"/>
     <use xlink:href="#m0bcb1442e1" x="306.649421" y="79.822609" style="fill: #ff0000; stroke: #ff0000"/>
     <use xlink:href="#m0bcb1442e1" x="354.863699" y="75.521768" style="fill: #ff0000; stroke: #ff0000"/>
     <use xlink:href="#m0bcb1442e1" x="364.817073" y="68.835821" style="fill: #ff0000; stroke: #ff0000"/>
     <use xlink:href="#m0bcb1442e1" x="371.934698" y="63.413003" style="fill: #ff0000; stroke: #ff0000"/>
     <use xlink:href="#m0bcb1442e1" x="358.314955" y="58.527538" style="fill: #ff0000; stroke: #ff0000"/>
     <use xlink:href="#m0bcb1442e1" x="351.229209" y="55.404402" style="fill: #ff0000; stroke: #ff0000"/>
     <use xlink:href="#m0bcb1442e1" x="360.374092" y="53.568" style="fill: #ff0000; stroke: #ff0000"/>
    </g>
   </g>
   <g id="line2d_18">
    <defs>
     <path id="m32494b5488" d="M -3 3 
L 3 -3 
M -3 -3 
L 3 3 
" style="stroke: #0000ff"/>
    </defs>
    <g clip-path="url(#p5eebed81c8)">
     <use xlink:href="#m32494b5488" x="73.832727" y="295.488" style="fill: #0000ff; stroke: #0000ff"/>
     <use xlink:href="#m32494b5488" x="73.832727" y="295.487999" style="fill: #0000ff; stroke: #0000ff"/>
     <use xlink:href="#m32494b5488" x="73.832727" y="295.487998" style="fill: #0000ff; stroke: #0000ff"/>
     <use xlink:href="#m32494b5488" x="73.832736" y="295.487996" style="fill: #0000ff; stroke: #0000ff"/>
     <use xlink:href="#m32494b5488" x="73.832735" y="295.487995" style="fill: #0000ff; stroke: #0000ff"/>
     <use xlink:href="#m32494b5488" x="73.832753" y="295.487992" style="fill: #0000ff; stroke: #0000ff"/>
     <use xlink:href="#m32494b5488" x="73.832727" y="295.48799" style="fill: #0000ff; stroke: #0000ff"/>
     <use xlink:href="#m32494b5488" x="73.832727" y="295.487988" style="fill: #0000ff; stroke: #0000ff"/>
     <use xlink:href="#m32494b5488" x="73.832753" y="295.487985" style="fill: #0000ff; stroke: #0000ff"/>
     <use xlink:href="#m32494b5488" x="73.832755" y="295.487983" style="fill: #0000ff; stroke: #0000ff"/>
     <use xlink:href="#m32494b5488" x="73.832754" y="295.487982" style="fill: #0000ff; stroke: #0000ff"/>
     <use xlink:href="#m32494b5488" x="73.832753" y="295.48798" style="fill: #0000ff; stroke: #0000ff"/>
     <use xlink:href="#m32494b5488" x="73.832755" y="295.487978" style="fill: #0000ff; stroke: #0000ff"/>
     <use xlink:href="#m32494b5488" x="73.832727" y="295.487976" style="fill: #0000ff; stroke: #0000ff"/>
     <use xlink:href="#m32494b5488" x="73.832727" y="295.487974" style="fill: #0000ff; stroke: #0000ff"/>
     <use xlink:href="#m32494b5488" x="73.832749" y="295.487972" style="fill: #0000ff; stroke: #0000ff"/>
     <use xlink:href="#m32494b5488" x="73.832727" y="295.487971" style="fill: #0000ff; stroke: #0000ff"/>
     <use xlink:href="#m32494b5488" x="73.832771" y="295.487969" style="fill: #0000ff; stroke: #0000ff"/>
     <use xlink:href="#m32494b5488" x="73.832775" y="295.487963" style="fill: #0000ff; stroke: #0000ff"/>
     <use xlink:href="#m32494b5488" x="73.832727" y="295.48796" style="fill: #0000ff; stroke: #0000ff"/>
     <use xlink:href="#m32494b5488" x="73.832727" y="295.487958" style="fill: #0000ff; stroke: #0000ff"/>
     <use xlink:href="#m32494b5488" x="73.83273" y="295.487947" style="fill: #0000ff; stroke: #0000ff"/>
     <use xlink:href="#m32494b5488" x="73.832738" y="295.487938" style="fill: #0000ff; stroke: #0000ff"/>
     <use xlink:href="#m32494b5488" x="73.832736" y="295.487919" style="fill: #0000ff; stroke: #0000ff"/>
     <use xlink:href="#m32494b5488" x="73.832747" y="295.487916" style="fill: #0000ff; stroke: #0000ff"/>
     <use xlink:href="#m32494b5488" x="73.832764" y="295.487906" style="fill: #0000ff; stroke: #0000ff"/>
     <use xlink:href="#m32494b5488" x="73.832771" y="295.4879" style="fill: #0000ff; stroke: #0000ff"/>
     <use xlink:href="#m32494b5488" x="73.832746" y="295.487895" style="fill: #0000ff; stroke: #0000ff"/>
     <use xlink:href="#m32494b5488" x="73.832728" y="295.487889" style="fill: #0000ff; stroke: #0000ff"/>
     <use xlink:href="#m32494b5488" x="73.832739" y="295.487883" style="fill: #0000ff; stroke: #0000ff"/>
     <use xlink:href="#m32494b5488" x="73.832751" y="295.487876" style="fill: #0000ff; stroke: #0000ff"/>
     <use xlink:href="#m32494b5488" x="73.832755" y="295.487865" style="fill: #0000ff; stroke: #0000ff"/>
     <use xlink:href="#m32494b5488" x="73.832782" y="295.487856" style="fill: #0000ff; stroke: #0000ff"/>
     <use xlink:href="#m32494b5488" x="73.832776" y="295.487848" style="fill: #0000ff; stroke: #0000ff"/>
     <use xlink:href="#m32494b5488" x="73.832781" y="295.487842" style="fill: #0000ff; stroke: #0000ff"/>
     <use xlink:href="#m32494b5488" x="73.832793" y="295.487839" style="fill: #0000ff; stroke: #0000ff"/>
    </g>
   </g>
   <g id="line2d_19">
    <path d="M 73.832727 295.488 
L 398.487273 53.568 
" clip-path="url(#p5eebed81c8)" style="fill: none; stroke: #000000; stroke-width: 1.5; stroke-linecap: square"/>
   </g>
   <g id="patch_3">
    <path d="M 57.6 307.584 
L 57.6 41.472 
" style="fill: none; stroke: #000000; stroke-width: 0.8; stroke-linejoin: miter; stroke-linecap: square"/>
   </g>
   <g id="patch_4">
    <path d="M 414.72 307.584 
L 414.72 41.472 
" style="fill: none; stroke: #000000; stroke-width: 0.8; stroke-linejoin: miter; stroke-linecap: square"/>
   </g>
   <g id="patch_5">
    <path d="M 57.6 307.584 
L 414.72 307.584 
" style="fill: none; stroke: #000000; stroke-width: 0.8; stroke-linejoin: miter; stroke-linecap: square"/>
   </g>
   <g id="patch_6">
    <path d="M 57.6 41.472 
L 414.72 41.472 
" style="fill: none; stroke: #000000; stroke-width: 0.8; stroke-linejoin: miter; stroke-linecap: square"/>
   </g>
  </g>
 </g>
 <defs>
  <clipPath id="p5eebed81c8">
   <rect x="57.6" y="41.472" width="357.12" height="266.112"/>
  </clipPath>
 </defs>
</svg>
